<svg xmlns="http://www.w3.org/2000/svg" xmlns:xlink="http://www.w3.org/1999/xlink" width="500" zoomAndPan="magnify" viewBox="0 0 375 374.999991" height="500" preserveAspectRatio="xMidYMid meet" version="1.0"><defs><clipPath id="4a0feb9289"><path d="M 187.5 0 C 83.945312 0 0 83.945312 0 187.5 C 0 291.054688 83.945312 375 187.5 375 C 291.054688 375 375 291.054688 375 187.5 C 375 83.945312 291.054688 0 187.5 0 Z M 187.5 0 " clip-rule="nonzero"/></clipPath><clipPath id="ca427c315d"><path d="M 0 0 L 375 0 L 375 375 L 0 375 Z M 0 0 " clip-rule="nonzero"/></clipPath><clipPath id="3a7e991ee2"><path d="M 187.5 0 C 83.945312 0 0 83.945312 0 187.5 C 0 291.054688 83.945312 375 187.5 375 C 291.054688 375 375 291.054688 375 187.5 C 375 83.945312 291.054688 0 187.5 0 Z M 187.5 0 " clip-rule="nonzero"/></clipPath><clipPath id="edfdd0e63c"><rect x="0" width="375" y="0" height="375"/></clipPath><clipPath id="c3c480700b"><path d="M 74.886719 69.449219 L 299.886719 69.449219 L 299.886719 305.699219 L 74.886719 305.699219 Z M 74.886719 69.449219 " clip-rule="nonzero"/></clipPath><clipPath id="82eb8b178c"><path d="M 0.886719 0.449219 L 225.886719 0.449219 L 225.886719 236.546875 L 0.886719 236.546875 Z M 0.886719 0.449219 " clip-rule="nonzero"/></clipPath><clipPath id="0479d1c2ec"><rect x="0" width="226" y="0" height="237"/></clipPath></defs><g clip-path="url(#4a0feb9289)"><g transform="matrix(1, 0, 0, 1, 0, 0)"><g clip-path="url(#edfdd0e63c)"><g clip-path="url(#ca427c315d)"><g clip-path="url(#3a7e991ee2)"><rect x="-82.5" width="540" fill="#000000" height="539.999987" y="-82.499998" fill-opacity="1"/></g></g></g></g></g><g clip-path="url(#c3c480700b)"><g transform="matrix(1, 0, 0, 1, 74, 69)"><g clip-path="url(#0479d1c2ec)"><g clip-path="url(#82eb8b178c)"><path fill="#72eeff" d="M 107.589844 118.496094 L 0.996094 201.726562 L 0.996094 236.699219 L 107.589844 153.46875 Z M 119.40625 153.46875 L 119.40625 118.496094 L 226 201.726562 L 226 236.699219 Z M 107.589844 94.367188 L 0.996094 177.597656 L 0.996094 142.628906 L 107.589844 59.394531 Z M 119.40625 94.367188 L 119.40625 59.398438 L 226 142.628906 L 226 177.597656 Z M 107.589844 35.265625 L 0.996094 118.5 L 0.996094 83.527344 L 107.589844 0.296875 Z M 119.40625 35.265625 L 119.40625 0.296875 L 226 83.527344 L 226 118.5 Z M 119.40625 35.265625 " fill-opacity="1" fill-rule="nonzero"/></g></g></g></g></svg>