<svg xmlns="http://www.w3.org/2000/svg" xmlns:xlink="http://www.w3.org/1999/xlink" width="500" zoomAndPan="magnify" viewBox="0 0 375 187.499995" height="250" preserveAspectRatio="xMidYMid meet" version="1.0"><defs><g/><clipPath id="b0be71fa61"><path d="M 0.757812 131 L 112 131 L 112 162.210938 L 0.757812 162.210938 Z M 0.757812 131 " clip-rule="nonzero"/></clipPath><clipPath id="6ad04dd99f"><path d="M 2 0.0976562 L 11 0.0976562 L 11 24 L 2 24 Z M 2 0.0976562 " clip-rule="nonzero"/></clipPath><clipPath id="dc27055992"><path d="M 13 0.0976562 L 21 0.0976562 L 21 24 L 13 24 Z M 13 0.0976562 " clip-rule="nonzero"/></clipPath><clipPath id="8a5023d21a"><path d="M 22 0.0976562 L 32 0.0976562 L 32 24 L 22 24 Z M 22 0.0976562 " clip-rule="nonzero"/></clipPath><clipPath id="17bce5a280"><path d="M 34 0.0976562 L 42 0.0976562 L 42 24 L 34 24 Z M 34 0.0976562 " clip-rule="nonzero"/></clipPath><clipPath id="f61f8f104b"><path d="M 43 0.0976562 L 52 0.0976562 L 52 24 L 43 24 Z M 43 0.0976562 " clip-rule="nonzero"/></clipPath><clipPath id="b7edf486fb"><path d="M 54 0.0976562 L 58 0.0976562 L 58 24 L 54 24 Z M 54 0.0976562 " clip-rule="nonzero"/></clipPath><clipPath id="5d26a3c831"><path d="M 59 0.0976562 L 68 0.0976562 L 68 24 L 59 24 Z M 59 0.0976562 " clip-rule="nonzero"/></clipPath><clipPath id="e2ccb83393"><path d="M 74 0.0976562 L 84 0.0976562 L 84 24 L 74 24 Z M 74 0.0976562 " clip-rule="nonzero"/></clipPath><clipPath id="a368e9bf73"><path d="M 91 0.0976562 L 96 0.0976562 L 96 24 L 91 24 Z M 91 0.0976562 " clip-rule="nonzero"/></clipPath><clipPath id="c275bf885f"><path d="M 98 0.0976562 L 109 0.0976562 L 109 24 L 98 24 Z M 98 0.0976562 " clip-rule="nonzero"/></clipPath><clipPath id="42194f23ac"><rect x="0" width="112" y="0" height="32"/></clipPath><clipPath id="fed6b529af"><path d="M 118.441406 131.148438 L 141.476562 131.148438 L 141.476562 155.003906 L 118.441406 155.003906 Z M 118.441406 131.148438 " clip-rule="nonzero"/></clipPath><clipPath id="4dd3f5e8c3"><path d="M 0.441406 0.148438 L 23.476562 0.148438 L 23.476562 23.992188 L 0.441406 23.992188 Z M 0.441406 0.148438 " clip-rule="nonzero"/></clipPath><clipPath id="e6154e3c3e"><rect x="0" width="24" y="0" height="25"/></clipPath><clipPath id="a1c70809c6"><path d="M 4 0.402344 L 327 0.402344 L 327 63 L 4 63 Z M 4 0.402344 " clip-rule="nonzero"/></clipPath><clipPath id="068cee73e5"><rect x="0" width="323" y="0" height="63"/></clipPath><clipPath id="f59224093f"><path d="M 0.757812 41 L 328.925781 41 L 328.925781 131 L 0.757812 131 Z M 0.757812 41 " clip-rule="nonzero"/></clipPath><clipPath id="37b79b2da1"><rect x="0" width="329" y="0" height="90"/></clipPath><clipPath id="57df37a0e4"><rect x="0" width="329" y="0" height="163"/></clipPath></defs><g transform="matrix(1, 0, 0, 1, 22, 13)"><g clip-path="url(#57df37a0e4)"><g clip-path="url(#b0be71fa61)"><g transform="matrix(1, 0, 0, 1, -0.000000000000007105, 131)"><g clip-path="url(#42194f23ac)"><g clip-path="url(#6ad04dd99f)"><g fill="#ffffff" fill-opacity="1"><g transform="translate(0.882123, 23.13263)"><g><path d="M 9.890625 -14.28125 L 7.09375 -14.28125 L 7.09375 -19.125 C 7.09375 -19.5 7.003906 -19.769531 6.828125 -19.9375 C 6.660156 -20.113281 6.378906 -20.203125 5.984375 -20.203125 L 5.09375 -20.203125 C 4.71875 -20.203125 4.4375 -20.113281 4.25 -19.9375 C 4.070312 -19.769531 3.984375 -19.5 3.984375 -19.125 L 3.984375 -3.015625 C 3.984375 -2.640625 4.066406 -2.367188 4.234375 -2.203125 C 4.410156 -2.046875 4.695312 -1.96875 5.09375 -1.96875 L 5.984375 -1.96875 C 6.378906 -1.96875 6.660156 -2.046875 6.828125 -2.203125 C 7.003906 -2.367188 7.09375 -2.640625 7.09375 -3.015625 L 7.09375 -9.546875 L 5.640625 -9.546875 L 5.640625 -11.453125 L 9.890625 -11.453125 L 9.890625 -2.875 C 9.890625 -0.9375 8.828125 0.03125 6.703125 0.03125 L 4.421875 0.03125 C 2.285156 0.03125 1.21875 -0.9375 1.21875 -2.875 L 1.21875 -19.296875 C 1.21875 -21.210938 2.285156 -22.171875 4.421875 -22.171875 L 6.703125 -22.171875 C 8.828125 -22.171875 9.890625 -21.210938 9.890625 -19.296875 Z M 9.890625 -14.28125 "/></g></g></g></g><g clip-path="url(#dc27055992)"><g fill="#ffffff" fill-opacity="1"><g transform="translate(11.849191, 23.13263)"><g><path d="M 4.125 -10.203125 L 4.125 -2.109375 L 9 -2.109375 L 9 0 L 1.375 0 L 1.375 -22.203125 L 8.78125 -22.203125 L 8.78125 -20.09375 L 4.125 -20.09375 L 4.125 -12.3125 L 8.09375 -12.3125 L 8.09375 -10.203125 Z M 4.125 -10.203125 "/></g></g></g></g><g clip-path="url(#8a5023d21a)"><g fill="#ffffff" fill-opacity="1"><g transform="translate(21.334989, 23.13263)"><g><path d="M 3.96875 0 L 1.375 0 L 1.375 -22.203125 L 4.328125 -22.203125 L 7.4375 -4.90625 L 7.4375 -22.203125 L 10.03125 -22.203125 L 10.03125 0 L 7.1875 0 L 3.96875 -17.46875 Z M 3.96875 0 "/></g></g></g></g><g clip-path="url(#17bce5a280)"><g fill="#ffffff" fill-opacity="1"><g transform="translate(32.729341, 23.13263)"><g><path d="M 4.125 -10.203125 L 4.125 -2.109375 L 9 -2.109375 L 9 0 L 1.375 0 L 1.375 -22.203125 L 8.78125 -22.203125 L 8.78125 -20.09375 L 4.125 -20.09375 L 4.125 -12.3125 L 8.09375 -12.3125 L 8.09375 -10.203125 Z M 4.125 -10.203125 "/></g></g></g></g><g clip-path="url(#f61f8f104b)"><g fill="#ffffff" fill-opacity="1"><g transform="translate(42.215139, 23.13263)"><g><path d="M 3.96875 0 C 2.9375 0 2.191406 -0.21875 1.734375 -0.65625 C 1.273438 -1.09375 1.046875 -1.726562 1.046875 -2.5625 L 1.046875 -6.609375 L 3.84375 -6.609375 L 3.84375 -2.875 C 3.84375 -2.570312 3.894531 -2.367188 4 -2.265625 C 4.101562 -2.160156 4.300781 -2.109375 4.59375 -2.109375 L 5.953125 -2.109375 C 6.242188 -2.109375 6.441406 -2.160156 6.546875 -2.265625 C 6.648438 -2.367188 6.703125 -2.570312 6.703125 -2.875 L 6.703125 -9.0625 C 6.703125 -9.34375 6.648438 -9.535156 6.546875 -9.640625 C 6.441406 -9.742188 6.242188 -9.796875 5.953125 -9.796875 L 4.046875 -9.796875 C 2.960938 -9.796875 2.179688 -10.039062 1.703125 -10.53125 C 1.234375 -11.03125 1 -11.757812 1 -12.71875 L 1 -19.328125 C 1 -21.242188 2.0625 -22.203125 4.1875 -22.203125 L 6.265625 -22.203125 C 8.398438 -22.203125 9.46875 -21.242188 9.46875 -19.328125 L 9.46875 -14.796875 L 6.671875 -14.796875 L 6.671875 -19.015625 C 6.671875 -19.390625 6.585938 -19.660156 6.421875 -19.828125 C 6.265625 -20.003906 5.992188 -20.09375 5.609375 -20.09375 L 4.84375 -20.09375 C 4.46875 -20.09375 4.195312 -20.003906 4.03125 -19.828125 C 3.875 -19.660156 3.796875 -19.390625 3.796875 -19.015625 L 3.796875 -12.875 C 3.796875 -12.519531 3.878906 -12.253906 4.046875 -12.078125 C 4.210938 -11.910156 4.476562 -11.828125 4.84375 -11.828125 L 6.71875 -11.828125 C 7.707031 -11.828125 8.414062 -11.613281 8.84375 -11.1875 C 9.269531 -10.757812 9.484375 -10.117188 9.484375 -9.265625 L 9.484375 -2.5625 C 9.484375 -1.726562 9.253906 -1.09375 8.796875 -0.65625 C 8.347656 -0.21875 7.617188 0 6.609375 0 Z M 3.96875 0 "/></g></g></g></g><g clip-path="url(#b7edf486fb)"><g fill="#ffffff" fill-opacity="1"><g transform="translate(52.69795, 23.13263)"><g><path d="M 4.296875 0 L 1.515625 0 L 1.515625 -22.203125 L 4.296875 -22.203125 Z M 4.296875 0 "/></g></g></g></g><g clip-path="url(#5d26a3c831)"><g fill="#ffffff" fill-opacity="1"><g transform="translate(58.480583, 23.13263)"><g><path d="M 3.96875 0 C 2.9375 0 2.191406 -0.21875 1.734375 -0.65625 C 1.273438 -1.09375 1.046875 -1.726562 1.046875 -2.5625 L 1.046875 -6.609375 L 3.84375 -6.609375 L 3.84375 -2.875 C 3.84375 -2.570312 3.894531 -2.367188 4 -2.265625 C 4.101562 -2.160156 4.300781 -2.109375 4.59375 -2.109375 L 5.953125 -2.109375 C 6.242188 -2.109375 6.441406 -2.160156 6.546875 -2.265625 C 6.648438 -2.367188 6.703125 -2.570312 6.703125 -2.875 L 6.703125 -9.0625 C 6.703125 -9.34375 6.648438 -9.535156 6.546875 -9.640625 C 6.441406 -9.742188 6.242188 -9.796875 5.953125 -9.796875 L 4.046875 -9.796875 C 2.960938 -9.796875 2.179688 -10.039062 1.703125 -10.53125 C 1.234375 -11.03125 1 -11.757812 1 -12.71875 L 1 -19.328125 C 1 -21.242188 2.0625 -22.203125 4.1875 -22.203125 L 6.265625 -22.203125 C 8.398438 -22.203125 9.46875 -21.242188 9.46875 -19.328125 L 9.46875 -14.796875 L 6.671875 -14.796875 L 6.671875 -19.015625 C 6.671875 -19.390625 6.585938 -19.660156 6.421875 -19.828125 C 6.265625 -20.003906 5.992188 -20.09375 5.609375 -20.09375 L 4.84375 -20.09375 C 4.46875 -20.09375 4.195312 -20.003906 4.03125 -19.828125 C 3.875 -19.660156 3.796875 -19.390625 3.796875 -19.015625 L 3.796875 -12.875 C 3.796875 -12.519531 3.878906 -12.253906 4.046875 -12.078125 C 4.210938 -11.910156 4.476562 -11.828125 4.84375 -11.828125 L 6.71875 -11.828125 C 7.707031 -11.828125 8.414062 -11.613281 8.84375 -11.1875 C 9.269531 -10.757812 9.484375 -10.117188 9.484375 -9.265625 L 9.484375 -2.5625 C 9.484375 -1.726562 9.253906 -1.09375 8.796875 -0.65625 C 8.347656 -0.21875 7.617188 0 6.609375 0 Z M 3.96875 0 "/></g></g></g></g><g fill="#ffffff" fill-opacity="1"><g transform="translate(68.963395, 23.13263)"><g/></g></g><g clip-path="url(#e2ccb83393)"><g fill="#ffffff" fill-opacity="1"><g transform="translate(73.32173, 23.13263)"><g><path d="M 6.890625 -12.59375 C 9.046875 -12.59375 10.125 -11.632812 10.125 -9.71875 L 10.125 -2.875 C 10.125 -0.957031 9.046875 0 6.890625 0 L 4.453125 0 C 3.347656 0 2.535156 -0.238281 2.015625 -0.71875 C 1.503906 -1.207031 1.25 -1.925781 1.25 -2.875 L 1.25 -19.328125 C 1.25 -21.242188 2.316406 -22.203125 4.453125 -22.203125 L 6.75 -22.203125 C 8.882812 -22.203125 9.953125 -21.242188 9.953125 -19.328125 L 9.953125 -14.5 L 7.234375 -14.5 L 7.234375 -19.015625 C 7.234375 -19.410156 7.15625 -19.6875 7 -19.84375 C 6.851562 -20.007812 6.582031 -20.09375 6.1875 -20.09375 L 5.015625 -20.09375 C 4.640625 -20.09375 4.367188 -20.003906 4.203125 -19.828125 C 4.046875 -19.660156 3.96875 -19.390625 3.96875 -19.015625 L 3.96875 -12.59375 Z M 7.375 -9.484375 C 7.375 -9.867188 7.289062 -10.144531 7.125 -10.3125 C 6.96875 -10.488281 6.710938 -10.578125 6.359375 -10.578125 L 3.96875 -10.578125 L 3.96875 -3.15625 C 3.96875 -2.800781 4.050781 -2.535156 4.21875 -2.359375 C 4.382812 -2.191406 4.648438 -2.109375 5.015625 -2.109375 L 6.359375 -2.109375 C 6.710938 -2.109375 6.96875 -2.191406 7.125 -2.359375 C 7.289062 -2.535156 7.375 -2.800781 7.375 -3.15625 Z M 7.375 -9.484375 "/></g></g></g></g><g fill="#ffffff" fill-opacity="1"><g transform="translate(85.342782, 23.13263)"><g><path d="M 3.984375 -10.09375 L 1 -10.09375 L 1 -13.21875 L 3.984375 -13.21875 Z M 3.984375 0 L 1 0 L 1 -3.109375 L 3.984375 -3.109375 Z M 3.984375 0 "/></g></g></g><g clip-path="url(#a368e9bf73)"><g fill="#ffffff" fill-opacity="1"><g transform="translate(90.926015, 23.13263)"><g><path d="M 5.015625 -22.203125 L 5.015625 0 L 2.21875 0 L 2.21875 -20.09375 L 0.546875 -20.09375 L 0.546875 -22.203125 Z M 5.015625 -22.203125 "/></g></g></g></g><g clip-path="url(#c275bf885f)"><g fill="#ffffff" fill-opacity="1"><g transform="translate(98.503259, 23.13263)"><g><path d="M 8.8125 -5.59375 L 10.28125 -5.59375 L 10.28125 -3.453125 L 8.8125 -3.453125 L 8.8125 0 L 6.15625 0 L 6.15625 -3.453125 L 0.203125 -3.453125 L 0.203125 -6.046875 L 5.015625 -22.203125 L 7.84375 -22.203125 L 2.28125 -5.59375 L 6.15625 -5.59375 L 6.15625 -13.34375 L 8.8125 -13.34375 Z M 8.8125 -5.59375 "/></g></g></g></g></g></g></g><g clip-path="url(#fed6b529af)"><g transform="matrix(1, 0, 0, 1, 118, 131)"><g clip-path="url(#e6154e3c3e)"><g clip-path="url(#4dd3f5e8c3)"><path fill="#ffffff" d="M 11.355469 12.0625 L 0.453125 20.464844 L 0.453125 23.992188 L 11.355469 15.59375 Z M 12.5625 15.59375 L 12.5625 12.0625 L 23.464844 20.464844 L 23.464844 23.992188 Z M 11.355469 9.628906 L 0.453125 18.027344 L 0.453125 14.5 L 11.355469 6.101562 Z M 12.5625 9.628906 L 12.5625 6.101562 L 23.464844 14.5 L 23.464844 18.027344 Z M 11.355469 3.664062 L 0.453125 12.0625 L 0.453125 8.535156 L 11.355469 0.136719 Z M 12.5625 3.664062 L 12.5625 0.136719 L 23.464844 8.535156 L 23.464844 12.0625 Z M 12.5625 3.664062 " fill-opacity="1" fill-rule="nonzero"/></g></g></g></g><g clip-path="url(#a1c70809c6)"><g transform="matrix(1, 0, 0, 1, 4, -0.000000000000003553)"><g clip-path="url(#068cee73e5)"><g fill="#ffffff" fill-opacity="1"><g transform="translate(1.324308, 51.339078)"><g><path d="M 29.375 -39.96875 L 24.796875 -37.234375 C 23.941406 -38.648438 22.9375 -39.722656 21.78125 -40.453125 C 20.625 -41.191406 19.171875 -41.5625 17.421875 -41.5625 C 15.390625 -41.5625 13.601562 -40.929688 12.0625 -39.671875 C 10.519531 -38.410156 9.75 -36.863281 9.75 -35.03125 C 9.75 -33.570312 10.285156 -32.300781 11.359375 -31.21875 C 12.441406 -30.144531 14.019531 -29.222656 16.09375 -28.453125 L 19.4375 -27.171875 C 23.300781 -25.710938 26.164062 -23.882812 28.03125 -21.6875 C 29.894531 -19.5 30.828125 -16.71875 30.828125 -13.34375 C 30.828125 -9.15625 29.394531 -5.722656 26.53125 -3.046875 C 23.664062 -0.367188 20.203125 0.96875 16.140625 0.96875 C 12.566406 0.96875 9.445312 -0.207031 6.78125 -2.5625 C 4.125 -4.914062 2.515625 -8.019531 1.953125 -11.875 L 7.734375 -13.09375 C 7.734375 -10.625 8.585938 -8.554688 10.296875 -6.890625 C 12.003906 -5.222656 14.117188 -4.390625 16.640625 -4.390625 C 18.992188 -4.390625 20.992188 -5.238281 22.640625 -6.9375 C 24.285156 -8.644531 25.109375 -10.78125 25.109375 -13.34375 C 25.109375 -15.332031 24.507812 -16.976562 23.3125 -18.28125 C 22.113281 -19.582031 20.070312 -20.84375 17.1875 -22.0625 L 14.015625 -23.40625 C 10.359375 -24.945312 7.773438 -26.648438 6.265625 -28.515625 C 4.765625 -30.390625 4.015625 -32.5625 4.015625 -35.03125 C 4.015625 -38.445312 5.320312 -41.28125 7.9375 -43.53125 C 10.5625 -45.789062 13.765625 -46.921875 17.546875 -46.921875 C 20.109375 -46.921875 22.40625 -46.320312 24.4375 -45.125 C 26.46875 -43.925781 28.113281 -42.207031 29.375 -39.96875 Z M 29.375 -39.96875 "/></g></g></g><g fill="#ffffff" fill-opacity="1"><g transform="translate(34.045085, 51.339078)"><g><path d="M 25.234375 0.96875 C 20.835938 0.96875 16.789062 -0.0820312 13.09375 -2.1875 C 9.40625 -4.300781 6.492188 -7.195312 4.359375 -10.875 C 2.222656 -14.550781 1.15625 -18.582031 1.15625 -22.96875 C 1.15625 -27.195312 2.238281 -31.160156 4.40625 -34.859375 C 6.582031 -38.554688 9.53125 -41.488281 13.25 -43.65625 C 16.96875 -45.832031 20.960938 -46.921875 25.234375 -46.921875 C 29.453125 -46.921875 33.441406 -45.84375 37.203125 -43.6875 C 40.960938 -41.539062 43.914062 -38.617188 46.0625 -34.921875 C 48.21875 -31.222656 49.296875 -27.238281 49.296875 -22.96875 C 49.296875 -18.582031 48.226562 -14.550781 46.09375 -10.875 C 43.96875 -7.195312 41.066406 -4.300781 37.390625 -2.1875 C 33.710938 -0.0820312 29.660156 0.96875 25.234375 0.96875 Z M 43.5625 -22.96875 C 43.5625 -26.382812 42.75 -29.523438 41.125 -32.390625 C 39.5 -35.253906 37.285156 -37.5 34.484375 -39.125 C 31.679688 -40.75 28.578125 -41.5625 25.171875 -41.5625 C 21.835938 -41.5625 18.757812 -40.738281 15.9375 -39.09375 C 13.113281 -37.445312 10.898438 -35.210938 9.296875 -32.390625 C 7.691406 -29.566406 6.890625 -26.425781 6.890625 -22.96875 C 6.890625 -19.5625 7.75 -16.40625 9.46875 -13.5 C 11.195312 -10.59375 13.460938 -8.347656 16.265625 -6.765625 C 19.066406 -5.179688 22.054688 -4.390625 25.234375 -4.390625 C 28.398438 -4.390625 31.382812 -5.179688 34.1875 -6.765625 C 36.988281 -8.347656 39.25 -10.570312 40.96875 -13.4375 C 42.695312 -16.300781 43.5625 -19.476562 43.5625 -22.96875 Z M 43.5625 -22.96875 "/></g></g></g><g fill="#ffffff" fill-opacity="1"><g transform="translate(84.497226, 51.339078)"><g><path d="M 10.109375 -45.953125 L 10.109375 -5.234375 L 24.0625 -5.234375 L 24.0625 0 L 4.390625 0 L 4.390625 -45.953125 Z M 10.109375 -45.953125 "/></g></g></g><g fill="#ffffff" fill-opacity="1"><g transform="translate(107.956253, 51.339078)"><g><path d="M 9.328125 -45.953125 L 9.328125 -18.53125 C 9.328125 -13.851562 10.25 -10.328125 12.09375 -7.953125 C 13.945312 -5.578125 16.71875 -4.390625 20.40625 -4.390625 C 24.144531 -4.390625 26.925781 -5.597656 28.75 -8.015625 C 30.582031 -10.429688 31.5 -13.9375 31.5 -18.53125 L 31.5 -45.953125 L 37.234375 -45.953125 L 37.234375 -16.640625 C 37.234375 -13.265625 36.519531 -10.222656 35.09375 -7.515625 C 33.675781 -4.816406 31.695312 -2.726562 29.15625 -1.25 C 26.613281 0.226562 23.695312 0.96875 20.40625 0.96875 C 17.039062 0.96875 14.109375 0.226562 11.609375 -1.25 C 9.109375 -2.726562 7.144531 -4.835938 5.71875 -7.578125 C 4.300781 -10.328125 3.59375 -13.328125 3.59375 -16.578125 L 3.59375 -45.953125 Z M 9.328125 -45.953125 "/></g></g></g><g fill="#ffffff" fill-opacity="1"><g transform="translate(148.720132, 51.339078)"><g><path d="M 27.671875 -45.953125 L 27.671875 -40.703125 L 16.75 -40.703125 L 16.75 0 L 11.03125 0 L 11.03125 -40.703125 L 0.125 -40.703125 L 0.125 -45.953125 Z M 27.671875 -45.953125 "/></g></g></g><g fill="#ffffff" fill-opacity="1"><g transform="translate(176.505369, 51.339078)"><g><path d="M 9.9375 -45.953125 L 9.9375 0 L 4.203125 0 L 4.203125 -45.953125 Z M 9.9375 -45.953125 "/></g></g></g><g fill="#ffffff" fill-opacity="1"><g transform="translate(190.641715, 51.339078)"><g><path d="M 25.234375 0.96875 C 20.835938 0.96875 16.789062 -0.0820312 13.09375 -2.1875 C 9.40625 -4.300781 6.492188 -7.195312 4.359375 -10.875 C 2.222656 -14.550781 1.15625 -18.582031 1.15625 -22.96875 C 1.15625 -27.195312 2.238281 -31.160156 4.40625 -34.859375 C 6.582031 -38.554688 9.53125 -41.488281 13.25 -43.65625 C 16.96875 -45.832031 20.960938 -46.921875 25.234375 -46.921875 C 29.453125 -46.921875 33.441406 -45.84375 37.203125 -43.6875 C 40.960938 -41.539062 43.914062 -38.617188 46.0625 -34.921875 C 48.21875 -31.222656 49.296875 -27.238281 49.296875 -22.96875 C 49.296875 -18.582031 48.226562 -14.550781 46.09375 -10.875 C 43.96875 -7.195312 41.066406 -4.300781 37.390625 -2.1875 C 33.710938 -0.0820312 29.660156 0.96875 25.234375 0.96875 Z M 43.5625 -22.96875 C 43.5625 -26.382812 42.75 -29.523438 41.125 -32.390625 C 39.5 -35.253906 37.285156 -37.5 34.484375 -39.125 C 31.679688 -40.75 28.578125 -41.5625 25.171875 -41.5625 C 21.835938 -41.5625 18.757812 -40.738281 15.9375 -39.09375 C 13.113281 -37.445312 10.898438 -35.210938 9.296875 -32.390625 C 7.691406 -29.566406 6.890625 -26.425781 6.890625 -22.96875 C 6.890625 -19.5625 7.75 -16.40625 9.46875 -13.5 C 11.195312 -10.59375 13.460938 -8.347656 16.265625 -6.765625 C 19.066406 -5.179688 22.054688 -4.390625 25.234375 -4.390625 C 28.398438 -4.390625 31.382812 -5.179688 34.1875 -6.765625 C 36.988281 -8.347656 39.25 -10.570312 40.96875 -13.4375 C 42.695312 -16.300781 43.5625 -19.476562 43.5625 -22.96875 Z M 43.5625 -22.96875 "/></g></g></g><g fill="#ffffff" fill-opacity="1"><g transform="translate(241.093856, 51.339078)"><g><path d="M 3.84375 -48.140625 L 38.328125 -12 L 38.328125 -45.953125 L 44.0625 -45.953125 L 44.0625 1.890625 L 9.5625 -34.25 L 9.5625 0 L 3.84375 0 Z M 3.84375 -48.140625 "/></g></g></g><g fill="#ffffff" fill-opacity="1"><g transform="translate(288.925894, 51.339078)"><g><path d="M 29.375 -39.96875 L 24.796875 -37.234375 C 23.941406 -38.648438 22.9375 -39.722656 21.78125 -40.453125 C 20.625 -41.191406 19.171875 -41.5625 17.421875 -41.5625 C 15.390625 -41.5625 13.601562 -40.929688 12.0625 -39.671875 C 10.519531 -38.410156 9.75 -36.863281 9.75 -35.03125 C 9.75 -33.570312 10.285156 -32.300781 11.359375 -31.21875 C 12.441406 -30.144531 14.019531 -29.222656 16.09375 -28.453125 L 19.4375 -27.171875 C 23.300781 -25.710938 26.164062 -23.882812 28.03125 -21.6875 C 29.894531 -19.5 30.828125 -16.71875 30.828125 -13.34375 C 30.828125 -9.15625 29.394531 -5.722656 26.53125 -3.046875 C 23.664062 -0.367188 20.203125 0.96875 16.140625 0.96875 C 12.566406 0.96875 9.445312 -0.207031 6.78125 -2.5625 C 4.125 -4.914062 2.515625 -8.019531 1.953125 -11.875 L 7.734375 -13.09375 C 7.734375 -10.625 8.585938 -8.554688 10.296875 -6.890625 C 12.003906 -5.222656 14.117188 -4.390625 16.640625 -4.390625 C 18.992188 -4.390625 20.992188 -5.238281 22.640625 -6.9375 C 24.285156 -8.644531 25.109375 -10.78125 25.109375 -13.34375 C 25.109375 -15.332031 24.507812 -16.976562 23.3125 -18.28125 C 22.113281 -19.582031 20.070312 -20.84375 17.1875 -22.0625 L 14.015625 -23.40625 C 10.359375 -24.945312 7.773438 -26.648438 6.265625 -28.515625 C 4.765625 -30.390625 4.015625 -32.5625 4.015625 -35.03125 C 4.015625 -38.445312 5.320312 -41.28125 7.9375 -43.53125 C 10.5625 -45.789062 13.765625 -46.921875 17.546875 -46.921875 C 20.109375 -46.921875 22.40625 -46.320312 24.4375 -45.125 C 26.46875 -43.925781 28.113281 -42.207031 29.375 -39.96875 Z M 29.375 -39.96875 "/></g></g></g></g></g></g><g clip-path="url(#f59224093f)"><g transform="matrix(1, 0, 0, 1, -0.000000000000007105, 41)"><g clip-path="url(#37b79b2da1)"><g fill="#72eeff" fill-opacity="1"><g transform="translate(2.078096, 81.524563)"><g><path d="M 46.484375 -0.890625 C 46.585938 -0.691406 46.566406 -0.492188 46.421875 -0.296875 C 46.273438 -0.0976562 46.078125 0 45.828125 0 L 35.609375 0 C 35.265625 0 35.039062 -0.144531 34.9375 -0.4375 L 23.25 -33.46875 L 11.703125 -0.4375 C 11.648438 -0.144531 11.398438 0 10.953125 0 L 0.8125 0 C 0.46875 0 0.234375 -0.0976562 0.109375 -0.296875 C -0.015625 -0.492188 -0.0234375 -0.691406 0.078125 -0.890625 L 22.5 -58.78125 C 22.601562 -59.070312 22.851562 -59.21875 23.25 -59.21875 C 23.644531 -59.21875 23.890625 -59.070312 23.984375 -58.78125 Z M 46.484375 -0.890625 "/></g></g></g><g fill="#72eeff" fill-opacity="1"><g transform="translate(50.935359, 81.524563)"><g><path d="M 40.421875 -0.96875 C 40.515625 -0.71875 40.5 -0.492188 40.375 -0.296875 C 40.257812 -0.0976562 40.050781 0 39.75 0 L 29.171875 0 C 28.773438 0 28.523438 -0.144531 28.421875 -0.4375 L 17.625 -23.90625 L 11.25 -23.90625 L 11.25 -0.671875 C 11.25 -0.222656 10.976562 0 10.4375 0 L 0.734375 0 C 0.242188 0 0 -0.222656 0 -0.671875 L 0 -34.796875 L 19.921875 -34.796875 C 20.503906 -34.796875 21.289062 -34.84375 22.28125 -34.9375 C 23.269531 -35.039062 24.242188 -35.3125 25.203125 -35.75 C 26.171875 -36.195312 26.988281 -36.875 27.65625 -37.78125 C 28.320312 -38.695312 28.65625 -39.972656 28.65625 -41.609375 C 28.65625 -43.234375 28.296875 -44.515625 27.578125 -45.453125 C 26.859375 -46.390625 25.976562 -47.066406 24.9375 -47.484375 C 23.90625 -47.910156 22.921875 -48.179688 21.984375 -48.296875 C 21.046875 -48.421875 20.359375 -48.484375 19.921875 -48.484375 L 0 -48.484375 L 0 -58.5625 C 0 -59 0.242188 -59.21875 0.734375 -59.21875 L 19.921875 -59.21875 C 20.609375 -59.21875 21.71875 -59.15625 23.25 -59.03125 C 24.78125 -58.914062 26.492188 -58.582031 28.390625 -58.03125 C 30.285156 -57.488281 32.109375 -56.601562 33.859375 -55.375 C 35.617188 -54.144531 37.066406 -52.414062 38.203125 -50.1875 C 39.335938 -47.96875 39.90625 -45.109375 39.90625 -41.609375 C 39.90625 -38.597656 39.410156 -36.039062 38.421875 -33.9375 C 37.429688 -31.84375 36.109375 -30.128906 34.453125 -28.796875 C 32.804688 -27.460938 30.992188 -26.425781 29.015625 -25.6875 C 30.890625 -21.488281 32.800781 -17.34375 34.75 -13.25 C 36.707031 -9.15625 38.597656 -5.0625 40.421875 -0.96875 Z M 40.421875 -0.96875 "/></g></g></g><g fill="#72eeff" fill-opacity="1"><g transform="translate(93.500402, 81.524563)"><g><path d="M 47.234375 -1.109375 C 47.484375 -0.816406 47.53125 -0.554688 47.375 -0.328125 C 47.226562 -0.109375 46.957031 0 46.5625 0 L 33.828125 0 C 33.535156 0 33.316406 -0.0703125 33.171875 -0.21875 L 15.921875 -21.546875 C 15.671875 -21.296875 15.113281 -20.6875 14.25 -19.71875 C 13.382812 -18.757812 12.347656 -17.601562 11.140625 -16.25 C 9.929688 -14.894531 8.6875 -13.488281 7.40625 -12.03125 C 6.125 -10.570312 4.914062 -9.203125 3.78125 -7.921875 C 2.644531 -6.640625 1.726562 -5.601562 1.03125 -4.8125 C 0.34375 -4.019531 0 -3.625 0 -3.625 L 0 -58.5625 C 0 -59 0.269531 -59.21875 0.8125 -59.21875 L 10.59375 -59.21875 C 11.082031 -59.21875 11.328125 -59 11.328125 -58.5625 L 11.328125 -31.609375 L 33.609375 -59 C 33.753906 -59.144531 33.976562 -59.21875 34.28125 -59.21875 L 46.34375 -59.21875 C 46.738281 -59.21875 47.007812 -59.09375 47.15625 -58.84375 C 47.300781 -58.601562 47.253906 -58.359375 47.015625 -58.109375 L 23.46875 -29.09375 Z M 47.234375 -1.109375 "/></g></g></g><g fill="#ffffff" fill-opacity="1"><g transform="translate(143.327133, 81.524563)"><g><path d="M 24.140625 -10.140625 C 24.679688 -10.140625 24.953125 -9.914062 24.953125 -9.46875 L 24.953125 -0.671875 C 24.953125 -0.222656 24.679688 0 24.140625 0 L 0.8125 0 C 0.269531 0 0 -0.222656 0 -0.671875 L 0 -9.46875 C 0 -9.914062 0.269531 -10.140625 0.8125 -10.140625 L 6.890625 -10.140625 L 6.890625 -59.21875 L 18.21875 -59.21875 L 18.21875 -10.140625 Z M 24.140625 -10.140625 "/></g></g></g><g fill="#ffffff" fill-opacity="1"><g transform="translate(169.532387, 81.524563)"><g><path d="M 12.21875 -37.75 L 23.46875 -37.75 L 23.46875 -0.671875 C 23.46875 -0.222656 23.171875 0 22.578125 0 L 13.03125 0 C 12.488281 0 12.21875 -0.222656 12.21875 -0.671875 Z M 0.8125 -49.078125 C 0.269531 -49.078125 0 -49.300781 0 -49.75 L 0 -58.5625 C 0 -59 0.269531 -59.21875 0.8125 -59.21875 L 34.796875 -59.21875 C 35.335938 -59.21875 35.609375 -59 35.609375 -58.5625 L 35.609375 -49.75 C 35.609375 -49.300781 35.335938 -49.078125 34.796875 -49.078125 Z M 0.8125 -49.078125 "/></g></g></g><g fill="#ffffff" fill-opacity="1"><g transform="translate(206.91559, 81.524563)"><g><path d="M 28.125 -11.03125 L 28.125 0 L 0.8125 0 C 0.269531 0 0 -0.222656 0 -0.671875 L 0 -58.5625 C 0 -59 0.269531 -59.21875 0.8125 -59.21875 L 28.125 -59.21875 L 28.125 -48.484375 L 11.328125 -48.484375 L 11.328125 -35.09375 L 34.578125 -35.09375 C 35.117188 -35.09375 35.390625 -34.867188 35.390625 -34.421875 L 35.390625 -25.015625 C 35.390625 -24.578125 35.117188 -24.359375 34.578125 -24.359375 L 11.328125 -24.359375 L 11.328125 -11.03125 Z M 28.125 -11.03125 "/></g></g></g><g fill="#ffffff" fill-opacity="1"><g transform="translate(244.076717, 81.524563)"><g><path d="M 33.828125 -10.875 L 45.15625 -10.875 L 45.15625 -0.671875 C 45.15625 -0.222656 44.882812 0 44.34375 0 L 34.71875 0 C 31.757812 0 28.675781 -0.21875 25.46875 -0.65625 C 22.257812 -1.101562 19.148438 -1.929688 16.140625 -3.140625 C 13.128906 -4.347656 10.398438 -6.050781 7.953125 -8.25 C 5.515625 -10.445312 3.578125 -13.285156 2.140625 -16.765625 C 0.710938 -20.242188 0 -24.523438 0 -29.609375 C 0 -34.835938 0.726562 -39.226562 2.1875 -42.78125 C 3.644531 -46.34375 5.59375 -49.207031 8.03125 -51.375 C 10.476562 -53.550781 13.21875 -55.207031 16.25 -56.34375 C 19.28125 -57.476562 22.390625 -58.238281 25.578125 -58.625 C 28.765625 -59.019531 31.8125 -59.21875 34.71875 -59.21875 L 44.34375 -59.21875 C 44.882812 -59.21875 45.15625 -59 45.15625 -58.5625 L 45.15625 -35.3125 L 33.828125 -35.3125 L 33.828125 -48.421875 C 29.535156 -48.660156 25.695312 -48.175781 22.3125 -46.96875 C 18.9375 -45.757812 16.273438 -43.734375 14.328125 -40.890625 C 12.378906 -38.054688 11.40625 -34.296875 11.40625 -29.609375 C 11.40625 -25.960938 11.929688 -22.953125 12.984375 -20.578125 C 14.046875 -18.210938 15.453125 -16.363281 17.203125 -15.03125 C 18.960938 -13.695312 20.851562 -12.71875 22.875 -12.09375 C 24.894531 -11.476562 26.867188 -11.109375 28.796875 -10.984375 C 30.722656 -10.867188 32.398438 -10.832031 33.828125 -10.875 Z M 33.828125 -10.875 "/></g></g></g><g fill="#ffffff" fill-opacity="1"><g transform="translate(291.527475, 81.524563)"><g><path d="M 12.21875 -37.75 L 23.46875 -37.75 L 23.46875 -0.671875 C 23.46875 -0.222656 23.171875 0 22.578125 0 L 13.03125 0 C 12.488281 0 12.21875 -0.222656 12.21875 -0.671875 Z M 0.8125 -49.078125 C 0.269531 -49.078125 0 -49.300781 0 -49.75 L 0 -58.5625 C 0 -59 0.269531 -59.21875 0.8125 -59.21875 L 34.796875 -59.21875 C 35.335938 -59.21875 35.609375 -59 35.609375 -58.5625 L 35.609375 -49.75 C 35.609375 -49.300781 35.335938 -49.078125 34.796875 -49.078125 Z M 0.8125 -49.078125 "/></g></g></g></g></g></g></g></g></svg>