<svg xmlns="http://www.w3.org/2000/svg" xmlns:xlink="http://www.w3.org/1999/xlink" width="500" zoomAndPan="magnify" viewBox="0 0 375 374.999991" height="500" preserveAspectRatio="xMidYMid meet" version="1.0"><defs><g/><clipPath id="3dd8ecee43"><path d="M 52.792969 142 L 151.792969 142 L 151.792969 246.140625 L 52.792969 246.140625 Z M 52.792969 142 " clip-rule="nonzero"/></clipPath><clipPath id="e1308e091c"><path d="M 0.800781 0.125 L 99.792969 0.125 L 99.792969 104.140625 L 0.800781 104.140625 Z M 0.800781 0.125 " clip-rule="nonzero"/></clipPath><clipPath id="44e59886a4"><rect x="0" width="100" y="0" height="105"/></clipPath></defs><g clip-path="url(#3dd8ecee43)"><g transform="matrix(1, 0, 0, 1, 52, 142)"><g clip-path="url(#44e59886a4)"><g clip-path="url(#e1308e091c)"><path fill="#72eeff" d="M 47.746094 52.132812 L 0.84375 88.753906 L 0.84375 104.140625 L 47.746094 67.519531 Z M 52.945312 67.519531 L 52.945312 52.132812 L 99.84375 88.753906 L 99.84375 104.140625 Z M 47.746094 41.515625 L 0.84375 78.136719 L 0.84375 62.75 L 47.746094 26.128906 Z M 52.945312 41.515625 L 52.945312 26.128906 L 99.84375 62.75 L 99.84375 78.136719 Z M 47.746094 15.511719 L 0.84375 52.132812 L 0.84375 36.746094 L 47.746094 0.125 Z M 52.945312 15.511719 L 52.945312 0.125 L 99.84375 36.746094 L 99.84375 52.132812 Z M 52.945312 15.511719 " fill-opacity="1" fill-rule="nonzero"/></g></g></g></g><g fill="#72eeff" fill-opacity="1"><g transform="translate(157.501284, 247.145163)"><g><path d="M 72.0625 -1.71875 C 72.238281 -1.28125 72.21875 -0.882812 72 -0.53125 C 71.78125 -0.175781 71.40625 0 70.875 0 L 52 0 C 51.300781 0 50.863281 -0.265625 50.6875 -0.796875 L 31.40625 -42.625 L 20.0625 -42.625 L 20.0625 -1.1875 C 20.0625 -0.394531 19.578125 0 18.609375 0 L 1.3125 0 C 0.4375 0 0 -0.394531 0 -1.1875 L 0 -62.03125 L 35.5 -62.03125 C 36.5625 -62.03125 37.96875 -62.117188 39.71875 -62.296875 C 41.476562 -62.472656 43.21875 -62.957031 44.9375 -63.75 C 46.65625 -64.539062 48.109375 -65.75 49.296875 -67.375 C 50.484375 -69 51.078125 -71.265625 51.078125 -74.171875 C 51.078125 -77.078125 50.4375 -79.363281 49.15625 -81.03125 C 47.882812 -82.707031 46.320312 -83.921875 44.46875 -84.671875 C 42.625 -85.421875 40.863281 -85.90625 39.1875 -86.125 C 37.519531 -86.34375 36.289062 -86.453125 35.5 -86.453125 L 0 -86.453125 L 0 -104.40625 C 0 -105.195312 0.4375 -105.59375 1.3125 -105.59375 L 35.5 -105.59375 C 36.738281 -105.59375 38.71875 -105.476562 41.4375 -105.25 C 44.164062 -105.03125 47.222656 -104.4375 50.609375 -103.46875 C 54.003906 -102.507812 57.257812 -100.925781 60.375 -98.71875 C 63.5 -96.519531 66.070312 -93.441406 68.09375 -89.484375 C 70.125 -85.523438 71.140625 -80.421875 71.140625 -74.171875 C 71.140625 -68.804688 70.257812 -64.253906 68.5 -60.515625 C 66.738281 -56.773438 64.382812 -53.71875 61.4375 -51.34375 C 58.488281 -48.96875 55.253906 -47.117188 51.734375 -45.796875 C 55.078125 -38.316406 58.488281 -30.925781 61.96875 -23.625 C 65.445312 -16.320312 68.8125 -9.019531 72.0625 -1.71875 Z M 72.0625 -1.71875 "/></g></g></g><g fill="#72eeff" fill-opacity="1"><g transform="translate(233.387761, 247.145163)"><g><path d="M 84.203125 -1.984375 C 84.640625 -1.453125 84.726562 -0.988281 84.46875 -0.59375 C 84.207031 -0.195312 83.722656 0 83.015625 0 L 60.3125 0 C 59.789062 0 59.394531 -0.128906 59.125 -0.390625 L 28.375 -38.40625 C 27.9375 -37.96875 26.945312 -36.890625 25.40625 -35.171875 C 23.863281 -33.453125 22.015625 -31.382812 19.859375 -28.96875 C 17.703125 -26.550781 15.476562 -24.039062 13.1875 -21.4375 C 10.90625 -18.84375 8.753906 -16.398438 6.734375 -14.109375 C 4.710938 -11.828125 3.082031 -9.984375 1.84375 -8.578125 C 0.613281 -7.171875 0 -6.46875 0 -6.46875 L 0 -104.40625 C 0 -105.195312 0.484375 -105.59375 1.453125 -105.59375 L 18.875 -105.59375 C 19.75 -105.59375 20.1875 -105.195312 20.1875 -104.40625 L 20.1875 -56.359375 L 59.921875 -105.1875 C 60.179688 -105.457031 60.578125 -105.59375 61.109375 -105.59375 L 82.625 -105.59375 C 83.320312 -105.59375 83.800781 -105.367188 84.0625 -104.921875 C 84.332031 -104.484375 84.25 -104.046875 83.8125 -103.609375 L 41.84375 -51.875 Z M 84.203125 -1.984375 "/></g></g></g></svg>